<svg width="12" height="6" viewBox="0 0 12 6" fill="none" xmlns="http://www.w3.org/2000/svg">
<path d="M0.237154 0.207852C0.395257 0.069284 0.582451 0 0.798736 0C1.01502 0 1.202 0.069284 1.35968 0.207852L5.99209 4.26789L10.6403 0.193995C10.7879 0.064665 10.9723 0 11.1937 0C11.415 0 11.6047 0.069284 11.7628 0.207852C11.9209 0.34642 12 0.510484 12 0.700045C12 0.889606 11.9209 1.05349 11.7628 1.19168L6.43478 5.84757C6.37154 5.90299 6.30303 5.94235 6.22925 5.96563C6.15547 5.98891 6.07642 6.00036 5.99209 5.99999C5.90777 5.99999 5.82872 5.98835 5.75494 5.96507C5.68116 5.94179 5.61265 5.90262 5.54941 5.84757L0.221344 1.17783C0.073781 1.0485 0 0.889052 0 0.699491C0 0.50993 0.079051 0.34605 0.237154 0.207852Z" fill="black"/>
</svg>
